<svg xmlns="http://www.w3.org/2000/svg" version="1.1" width="600px" height="600px" viewBox="0 0 200 200" style="overflow:hidden!important;"><g id="svga-group-wrapper"><g id="svga-group-backs-single"></g><g id="svga-group-humanwrap-move" transform="matrix(1,0,0,1,0,0)"><g id="svga-group-humanwrap"><g id="svga-group-hair-back-move" transform="matrix(1,0,0,1,0,0)"><g id="svga-group-hair-back"><path id="SvgjsPath19938" d="M134.2 50.7s5.7 1.1 10.5 12 2.8 23.4 2.2 32.1-2 36-10.9 49.8-13.1 14.6-23.4 18.4c-10.3 3.7-36.5 2.6-47.6-7.4-11.1-10.1-6.5-26.9-3.7-33 2.8-6.2 72.9-71.9 72.9-71.9" fill="#221b23" stroke-width="none" opacity="1"></path><path id="SvgjsPath19939" d="M71.2 121.7s-2.8 7.1-3.4 12c-.6 4.9 2.6 9.5 4.5 12.1 2.1 2.8 6 7.6 6.1 17.2.1 6 41.6-5.5 41.6-5.5 3.7-2.9 11.1-9.6 15.6-20.9 3.8-9.5 3.8-17.8 3.5-22.4-17.2 6.2-34.5 12.5-51.7 18.7l-2.8-4.3-13.4-6.9z" fill="#1b141c" stroke-width="none" opacity="1"></path></g></g><g id="svga-group-humanbody-back"><path id="SvgjsPath16863" d="m168.5 219.5-1.7-21.5s.7-9-8.8-15.3-23.4-10.1-29.5-14.2c-6.1-4.1-9.2-4.5-9-16.9s.9-40.3.9-40.3H79.6s.7 27.9.9 40.3c.2 12.4-2.9 12.8-9 16.9-6.1 4.1-20 7.9-29.5 14.2S33.2 198 33.2 198l-1.6 21.5h136.9z" fill="#f3d4cf" stroke-width="none" opacity="1" stroke="none"></path></g><g id="svga-group-chinshadow-single"><path id="SvgjsPath16859" d="M80.4 155.4c5.9 5.8 12.6 9.3 19.6 9.3s13.7-3.5 19.6-9.3c-.1-1.1-.1-2.4-.1-3.8.2-12.4.9-40.3.9-40.3H79.6s.7 27.9.9 40.3c0 1.4 0 2.7-.1 3.8z" fill="#d4958a" stroke-width="none" opacity="0.65" stroke="none"></path></g><g id="svga-group-humanbody-front"><path id="SvgjsPath16864" d="M73.8 175.9c5.1 2.9 11.8 5.2 17.6 5.7.4 0 .4-.6.1-.7-2.8-1.1-5.9-1.7-8.8-2.6-2.9-.9-5.8-2-8.8-2.7-.1-.1-.3.2-.1.3zm35.2 6.2c5.3-.6 11.3-3 15.9-5.8.3-.2.1-.6-.2-.5-2.6.9-5.2 2-7.8 2.9-2.6.9-5.4 1.5-8 2.5-.5.1-.5.9.1.9z" fill="#d4958a" stroke-width="none" opacity="1" stroke="none"></path><path id="SvgjsPath16865" d="m168.4 219.4-2.1-21.4c0-2.2-.5-4.5-1.5-6.6-.9-2.1-2.3-3.9-3.9-5.5s-3.5-2.8-5.5-4c-2-1.2-4.1-2.2-6.2-3.1-4.2-1.9-8.6-3.6-12.9-5.4-2.2-.9-4.3-1.9-6.4-3-1.1-.6-2.1-1.2-3-1.9-1-.6-2-1.2-3-1.9s-2-1.5-2.8-2.6c-.8-1-1.3-2.2-1.7-3.4-.7-2.4-.8-4.8-.8-7.2 0-4.7.2-9.4.3-14.1.2-9.4.6-18.7.9-28l.6.6-20.4-.2-20.4-.1.3-.3.7 28c.1 4.7.3 9.3.4 14 0 2.4-.1 4.7-.8 7.1-.3 1.2-.9 2.3-1.6 3.3-.8 1-1.7 1.8-2.7 2.5s-2 1.3-2.9 2c-.9.6-1.9 1.3-3 1.9-2.1 1.2-4.2 2.1-6.4 3.1-4.3 1.9-8.6 3.6-12.8 5.6-2.1 1-4.2 2.1-6.1 3.2-2 1.2-3.8 2.4-5.4 4-1.6 1.6-2.9 3.4-3.8 5.4-.4 1-.8 2.1-1 3.1-.2 1.1-.4 2.2-.3 3.2v.2l-1.5 21.5-1-1.1 34 .1c11.3 0 22.7.1 34.1.2l34.2.3 34.4.5zm.2.2-34 .4-34.2.3c-11.4.1-22.9.2-34.4.2l-34.4.1h-1.1l.1-1.1 1.7-21.5v.1c-.1-5.1 2.2-9.8 5.7-13.3 1.7-1.7 3.8-3.1 5.8-4.3 2-1.2 4.2-2.2 6.3-3.2 4.3-2 8.7-3.7 13-5.4 2.1-.9 4.3-1.8 6.3-2.9 1-.5 1.9-1.1 3-1.8 1-.6 2-1.2 2.9-1.9.9-.6 1.8-1.4 2.4-2.2.7-.9 1.2-1.9 1.5-2.9.6-2.1.8-4.5.8-6.8 0-4.6-.1-9.3-.2-14l-.6-28v-.3h.3l20.4-.1 20.4-.2h.6v.6c-.1 9.3-.2 18.7-.4 28-.1 4.7-.2 9.4-.2 14 .1 2.3.2 4.6.8 6.7.3 1.1.8 2 1.4 2.9.6.8 1.4 1.6 2.4 2.2.9.6 1.9 1.3 2.9 1.9 1 .7 1.9 1.3 2.9 1.8 2 1.1 4.1 2.1 6.3 3 4.3 1.8 8.6 3.6 12.9 5.6 2.1 1 4.2 2.1 6.2 3.3 2 1.2 4 2.6 5.7 4.3 3.4 3.4 5.6 8.1 5.4 13v-.1l1.4 21.6zm-112.8-.4 1.9-13.8.1 13.8h-2zm88.6 0-1.9-13.8-.1 13.8h2z" fill="#c5796d" stroke-width="none" opacity="1" stroke="none"></path></g><g id="svga-group-clothes-single"><path id="SvgjsPath20300" d="M168.4 195.7c-.9-7.5-3.8-11.9-9.4-15.1s-20.9-8.7-29-12.9c-6.4-3.3-8.6-7.6-8.8-10.3s0-14.5 0-14.5-6 5.3-22.5 5.3c-12.7 0-19.7-5.1-19.7-5.1s.2 11.4 0 14.1-2.7 7.1-9.1 10.4c-8.1 4.2-23.2 9.7-28.8 12.9s-8.6 7.6-9.5 15.1c-.9 7.5-2.8 24.3-2.8 24.3h142.3c.1.1-1.9-16.7-2.7-24.2zm-69.3 5.5c-6 0-12-3.9-12-8.4 0-3.3 4.7-22.3 4.7-22.3s9.9.8 16 .2c0 0 3.1 15.2 3.5 21.4s-6.2 9.1-12.2 9.1z" fill="#ffffff" stroke-width="none" opacity="1"></path><path id="SvgjsPath20301" d="M171.4 219.8v-.2l-.1-.6-.3-2.6-2.5-20.7c-.4-3.3-1.2-6.6-3-9.4-1.8-2.8-4.5-4.9-7.4-6.4-5.9-3-12-5.4-18-8.1-3-1.3-6-2.7-8.9-4.2-2.9-1.4-5.6-3.3-7.4-5.8-.9-1.2-1.6-2.7-1.8-4.1-.1-1.5-.1-3.2-.1-4.8l.1-9.9c0-.2-.1-.4-.2-.6-.3-.4-.9-.4-1.3-.1-.6.5-1.4.9-2.1 1.3-.8.4-1.6.8-2.4 1.1-1.7.6-3.4 1.1-5.2 1.5-3.5.8-7.1 1.1-10.8 1.2-3.6.1-7.2-.1-10.8-.9-3.5-.7-7-1.9-10-3.8-.1-.1-.2-.1-.3-.1-.3 0-.6.3-.5.6.1 4.3.2 8.6.2 12.9 0 1.1-.1 2.1-.5 3-.4 1-.9 1.9-1.5 2.7-1.2 1.7-2.9 3.1-4.6 4.3-1.8 1.2-3.7 2.1-5.7 3-1.9.9-3.9 1.8-5.9 2.6l-11.9 5c-2 .9-4 1.7-5.9 2.7-2 .9-3.8 2.1-5.5 3.5-1.7 1.4-3 3.2-4 5.2s-1.6 4.1-1.9 6.3c-1.1 8.6-2.1 17.1-3.2 25.6v.1c0 .5.4.8.8.8l41.7.2c13.9.1 27.8 0 41.7 0 13.9-.1 27.8-.2 41.7-.5l10.4-.2 5.2-.1h1.5c.1 0 .1 0 .2-.1.2-.1.2-.4.2-.4zm-7-.2-10.4-.2c-13.9-.2-27.8-.4-41.7-.5-13.9 0-27.8-.1-41.7 0l-40.8.2 2.6-24.7c.3-2.1.8-4.1 1.7-6 .9-1.9 2.1-3.6 3.7-5 1.5-1.4 3.4-2.5 5.3-3.5s3.9-1.9 5.8-2.7l11.9-5.1c2-.9 3.9-1.7 5.9-2.6 1.9-.9 3.9-1.8 5.8-3 1.8-1.2 3.5-2.6 4.8-4.4.7-.9 1.2-1.8 1.6-2.9.2-.5.3-1.1.4-1.6.1-.6.1-1.1.1-1.6.1-4 .1-7.9.1-11.9 3 1.8 6.2 2.9 9.5 3.7 3.6.9 7.4 1.2 11.1 1.1 3.7 0 7.4-.4 11.1-1.1 1.8-.4 3.6-.9 5.4-1.5.9-.3 1.8-.7 2.6-1.1.3-.2.7-.4 1-.6v8.2c0 1.7 0 3.2.2 5 .2 1.8 1.1 3.4 2.1 4.8 2.1 2.8 5.1 4.7 8.1 6.1 3 1.4 6 2.7 9.1 3.9l9.1 3.7c3 1.2 6.1 2.5 9 3.9 2.9 1.5 5.6 3.5 7.4 6.2 1.8 2.7 2.7 6 3.1 9.2l2.2 20.7.3 2.6.1.6v.1h-6.5zm6.6.1h-.1.1c.2 0 .1 0 0 0zM110.6 180c-.6-3.2-1.3-6.4-2-9.5-.1-.4-.5-.7-.9-.6-2.6.3-5.2.4-7.9.5-2.7.1-5.3 0-8-.1-.2 0-.3.1-.3.2-.7 3.1-1.6 6.3-2.5 9.4-.9 3.1-1.8 6.2-2.3 9.4-.2.8-.3 1.6-.3 2.4-.1.9-.1 1.8.2 2.7.3.9.7 1.7 1.3 2.3.6.7 1.2 1.2 1.9 1.8 2.8 1.9 6.1 2.8 9.3 2.8 1.6 0 3.3-.2 4.9-.5 1.6-.4 3.2-.9 4.6-1.8 1.4-.9 2.7-2.3 3.2-4.1.3-.9.4-1.8.4-2.7 0-.9-.1-1.7-.2-2.5-.3-3.3-.8-6.5-1.4-9.7zm-.4 14.4c-.3 1.4-1.1 2.7-2.3 3.7-2.3 2-5.7 3-8.9 3s-6.4-1.3-8.7-3.4c-1.1-1.1-2-2.4-2.3-3.7-.2-.7-.1-1.3 0-2.1s.3-1.6.4-2.3c.6-3.1 1.1-6.3 1.7-9.5.5-3.1 1.2-6.2 1.9-9.2 2.6.2 5.2.4 7.7.6 2.4.2 4.8.3 7.3.1.5 2.9 1 5.9 1.5 8.8.5 3.2 1.1 6.4 1.5 9.5l.3 2.4c0 .7 0 1.4-.1 2.1zM48 200.3c-.8-2.9-2.3-5.6-4.1-8.1-1.8-2.4-3.8-4.7-6-6.6 1 1.1 1.9 2.2 2.8 3.4.9 1.2 1.8 2.4 2.6 3.6 1.6 2.5 3 5.1 3.7 7.9.8 2.8 1.3 5.8 1.8 8.7.2 1.5.4 2.9.6 4.4.2 1.5.3 2.9.5 4.4.1-3-.1-6-.4-8.9-.2-2.9-.7-5.9-1.5-8.8zm107.9-8.1c-1.8 2.4-3.3 5.1-4.1 8.1-.8 2.9-1.3 5.9-1.6 8.9-.3 3-.4 5.9-.4 8.9.2-1.5.3-3 .5-4.4.2-1.5.4-2.9.6-4.4.5-2.9.9-5.9 1.8-8.7.8-2.8 2.2-5.4 3.7-7.9.8-1.2 1.7-2.4 2.6-3.6.9-1.2 1.9-2.3 2.8-3.4-2.1 1.9-4.1 4.1-5.9 6.5z" fill="#e0e0e0" stroke-width="none" opacity="1"></path></g><g id="svga-group-head" transform="matrix(1,0,0,1,0,0)"><g id="svga-group-ears-left-move" transform="matrix(1,0,0,1,0,0)"><g id="svga-group-ears-left"><path id="SvgjsPath17548" d="M61.4 94.2s-2.5-4.6-5-5.4-4.1.7-3.7 6.2 4.9 21.8 9.9 20.8.9-18.4-1.2-21.6z" fill="#f3d4cf" stroke-width="none" opacity="1"></path><path id="SvgjsPath17549" d="M62.3 96c.3.7.5 1.4.8 2.1.5 1.4.9 2.9 1.3 4.5.4 1.5.7 3.2.9 4.8.1.8.2 1.7.2 2.6s0 1.7-.1 2.6c-.1.8-.3 1.7-.6 2.3-.3.7-.7 1.1-1.2 1.4-.9.5-1.8.4-2.7-.1s-1.7-1.5-2.4-2.5c-.7-1.1-1.3-2.4-1.9-3.7-.6-1.3-1.1-2.8-1.5-4.2-.5-1.4-.9-2.9-1.3-4.4-.4-1.5-.8-3.1-1.1-4.7s-.4-3.4-.3-5.1c.1-.8.3-1.7.7-2.3.3-.6.8-.9 1.2-1.1s.9-.1 1.3-.1c.4.1.9.3 1.3.5.8.5 1.6 1.4 2.4 2.4.7 1 1.4 2 2.1 3.2.3.5.6 1.1.9 1.8zm-3.1-4.7c-.8-.8-1.5-1.5-2.3-1.8s-1.6-.4-2.3-.1c-.4.2-.7.4-.9.8-.3.4-.4 1-.5 1.7-.2 1.4-.1 3 .1 4.5.2 1.6.5 3.1.9 4.7.7 3 1.7 5.9 2.9 8.3.6 1.2 1.2 2.3 1.9 3.3.7.9 1.4 1.7 2.2 2.1.4.2.8.3 1.2.3s.8-.1 1.1-.3c.3-.2.6-.6.8-1 .2-.5.4-1.1.5-1.8.2-1.4.1-2.9 0-4.5s-.4-3.1-.6-4.7c-.3-1.6-.6-3.1-1-4.6s-.9-2.9-1.6-4c-.9-1.1-1.6-2.1-2.4-2.9z" fill="#e4b3ab" stroke-width="none" opacity="1"></path><path id="SvgjsPath17550" d="M55.4 92.2c2.2 1.4 4.1 5.4 5.1 9.3v.1c0 .3-.2.3-.2.1-.4-1.1-.8-1.1-1.4 0-.1.7-.1 1.4.1 2.2.1.7.4 1.3.6 1.9.5 1.1 1.1 2 1.7 2.9.2.3 0 .7-.2.5-1.3-1-3.2-4.4-2.8-7.4.2-1.4.9-2.1 1.5-1.6-.7-2-1.6-3.8-2.6-5.2-.6-.8-1.9-2.6-2.6-2.3-1.2.5-.5 4.5-.4 6.2 0 .3-.2.3-.3.1-.7-2.9-.8-8.3 1.5-6.8z" fill="#d4958a" stroke-width="none" opacity="1"></path><path id="SvgjsPath17551" d="M60.6 110c-2.3-.9-3.9-4.5-4.9-8.5-.6-2.4-1.7-8 .5-8 .2 0 .3.5.1.6-2.1 1.1.2 8.6.8 10.4.9 2.5 2.1 4.1 3.5 5.1.1.1.1.5 0 .4z" fill="#d4958a" stroke-width="none" opacity="1"></path></g></g><g id="svga-group-ears-right-move" transform="matrix(1,0,0,1,0,0)"><g id="svga-group-ears-right"><path id="SvgjsPath17552" d="M138.6 94.2s2.5-4.6 5-5.4 4.1.7 3.7 6.2c-.5 5.5-4.9 21.8-9.9 20.8-5.1-.9-.9-18.4 1.2-21.6z" fill="#f3d4cf" stroke-width="none" opacity="1"></path><path id="SvgjsPath17553" d="M138.6 94.1c.6-1.2 1.3-2.2 2.1-3.2.7-1 1.5-1.8 2.4-2.4.4-.2.9-.5 1.3-.5.4-.1.9-.1 1.3.1s.9.5 1.2 1.1.6 1.4.7 2.3c.2 1.7 0 3.5-.3 5.1s-.7 3.2-1.1 4.7c-.4 1.5-.8 3-1.3 4.4s-1 2.9-1.5 4.2c-.6 1.3-1.2 2.6-1.9 3.7s-1.5 2-2.4 2.5-1.8.6-2.7.1c-.4-.3-.8-.7-1.2-1.4-.3-.7-.5-1.5-.6-2.3-.1-.9-.1-1.7-.1-2.6s.1-1.7.2-2.6c.2-1.7.5-3.3.9-4.8s.8-3 1.3-4.5c.3-.7.5-1.4.8-2.1l.9-1.8zm.1.1c-.7 1.1-1.1 2.6-1.6 4-.4 1.5-.7 3-1 4.6s-.5 3.1-.6 4.7c-.1 1.5-.2 3.1 0 4.5.1.7.2 1.3.5 1.8.2.5.5.8.8 1s.7.3 1.1.3c.4 0 .8-.1 1.2-.3.8-.4 1.5-1.2 2.2-2.1.7-1 1.3-2.1 1.9-3.3 1.2-2.5 2.2-5.3 2.9-8.3.4-1.5.7-3.1.9-4.7.2-1.5.2-3.2.1-4.5-.1-.7-.3-1.2-.5-1.7-.3-.4-.6-.7-.9-.8-.7-.3-1.6-.2-2.3.1-.8.3-1.6 1-2.3 1.8-1.1.8-1.8 1.8-2.4 2.9z" fill="#e4b3ab" stroke-width="none" opacity="1"></path><path id="SvgjsPath17554" d="M139.4 110c2.3-.9 3.9-4.5 4.9-8.5.6-2.4 1.7-8-.5-8-.2 0-.3.5-.1.6 2.1 1.1-.2 8.6-.8 10.4-.9 2.5-2.1 4.1-3.5 5.1-.1.1-.1.5 0 .4z" fill="#d4958a" stroke-width="none" opacity="1"></path><path id="SvgjsPath17555" d="M144.6 92.2c-2.2 1.4-4.1 5.4-5.1 9.3v.1c0 .3.2.3.2.1.4-1.1.8-1.1 1.4 0 .1.7.1 1.4-.1 2.2-.1.7-.4 1.3-.6 1.9-.5 1.1-1.1 2-1.7 2.9-.2.3 0 .7.2.5 1.3-1 3.2-4.4 2.8-7.4-.2-1.4-.9-2.1-1.5-1.6.7-2 1.6-3.8 2.6-5.2.6-.8 1.9-2.6 2.6-2.3 1.2.5.5 4.5.4 6.2 0 .3.2.3.3.1.7-2.9.8-8.3-1.5-6.8z" fill="#d4958a" stroke-width="none" opacity="1"></path></g></g><g id="svga-group-faceshape-wrap"><g id="svga-group-faceshape-single"><path id="SvgjsPath16845" d="M141 88.4c0 30.3-18.9 65.2-41 65.2s-41-34.9-41-65.2 18.9-47 41-47 41 16.6 41 47z" fill="#f3d4cf" stroke-width="none" opacity="1" stroke="none"></path><path id="SvgjsPath16846" d="M100 41.3c-22.1 0-41.1 16.7-41.1 47s19 65.5 41.1 65.5 41.1-35.2 41.1-65.5-19-47-41.1-47zm28.2 13.6.8.8c.3.3.5.6.8.9.3.3.5.6.8.9l.7.9c.2.3.5.6.7.9l.7 1 .3.5.3.5c.4.7.9 1.3 1.2 2l.6 1c.2.3.4.7.5 1l.5 1.1.5 1.1c.2.4.3.7.5 1.1l.4 1.1c2.3 5.9 3.2 12.4 3.3 18.7 0 6.4-.9 12.8-2.6 18.9-.8 3.1-1.9 6.1-3.1 9-1.2 2.9-2.5 5.8-4 8.6s-3.1 5.5-4.8 8.1c-.9 1.3-1.8 2.6-2.7 3.8-.9 1.2-1.9 2.4-3 3.6-2 2.3-4.3 4.4-6.7 6.3-2.4 1.8-5 3.3-7.8 4.3-1.4.5-2.8.9-4.3 1-1.5.2-2.9.2-4.4.1-3-.2-5.9-1.2-8.6-2.6-2.7-1.4-5.3-3.3-7.6-5.4-2.3-2.1-4.4-4.5-6.3-7.1s-3.6-5.3-5-8.1c-1.5-2.8-2.8-5.7-3.9-8.7-.6-1.5-1.1-3-1.6-4.5s-.9-3-1.3-4.6c-.8-3.1-1.4-6.2-1.8-9.3-.4-3.1-.7-6.3-.8-9.4 0-1.6 0-3.1.1-4.7 0-.8.1-1.6.1-2.3l.2-2.3c.3-3.1.9-6.2 1.7-9.1.8-3 1.8-5.9 3.2-8.6.2-.4.3-.7.5-1l.5-1c.4-.7.8-1.3 1.2-2 .4-.6.8-1.3 1.3-1.9l.7-.9.3-.5.4-.4c1.9-2.4 4.1-4.5 6.5-6.3s5-3.3 7.8-4.5 5.7-2 8.6-2.5c.7-.2 1.5-.2 2.2-.3.4-.1.8-.1 1.1-.1l1.1-.1c.8 0 1.5-.1 2.3-.1H102.6l1.1.1c.4 0 .8.1 1.1.1.4 0 .8.1 1.1.1l1.1.2.6.1.6.1 1.1.2c.4.1.7.2 1.1.3s.7.2 1.1.3c1.4.4 2.9.9 4.3 1.5s2.8 1.2 4.1 2c2.7 1.5 5.2 3.3 7.4 5.4l.4.4.5.3z" fill="#c5796d" stroke-width="none" opacity="1" stroke="none"></path></g></g><g id="svga-group-mouth-single-move" transform="matrix(1,0,0,1,0,0)"><g id="svga-group-mouth-single"><path id="SvgjsPath17254" d="M90 128.1s2 2.6 4 3.8 9.4 1.3 13.4-.2 7.5-6.6 8.1-7.8c0 0-2.9 1.9-7.1 1.5-4.3-.3-13.7.8-15.6 1.6s-2.8 1.1-2.8 1.1z" fill="#da7c87" stroke-width="none" opacity="1" transform="translate(0 3)" stroke="none"></path><path id="SvgjsPath17255" d="M117.2 121.6c-.5-.4-1-.6-1.6-.4-.4.1-.4.7-.1.8.1.1.2.1.3.2l-.6.6c-.7.8-2.3 2.2-5.3.8-3-1.4-5.1-1.8-7.1-.5s-2.7.9-4.6.2c-1.9-.6-4.3.4-5.5 1.7-1.2 1.3-2.2 2.6-4.1 2s-.8.5-.8.5c.2.1 1.5 1.1 2.5 1.4 1.1.2 2.1-.5 4.5-1.2s8.1-1.2 11.9-1.1c5.4.2 6.8-.6 8.3-1.8.7-.6 1.2-1.1 1.5-1.6.1.2.2.4.4.5.3.2.8.1.9-.3.2-.8-.2-1.4-.6-1.8z" fill="#d26d79" stroke-width="none" opacity="1" transform="translate(0 3)" stroke="none"></path><path id="SvgjsPath17256" d="M95.7 129.5c3.4 0 7.4.1 10.8-.9.5-.1.5-.8 0-1-3.4-1-7.7-.1-10.9 1.2-.3.2-.3.7.1.7z" fill="#e28c96" stroke-width="none" opacity="1" transform="translate(0 3)" stroke="none"></path></g></g><g id="svga-group-eyes-left-move" transform="matrix(1,0,0,1,0,0)"><g id="svga-group-eyes-left"><g id="svga-group-eyesback-left"><path id="SvgjsPath17906" d="M92.3 99.5s-1.4-2.7-3.1-3.9c-1.7-1.3-4.6-3.1-9.3-2.1-4.7.9-8 4.7-8 4.7s5.9 2.2 11.3 2.2c5.3-.1 9.1-.9 9.1-.9z" fill="#ffffff" stroke-width="none" opacity="1"></path></g><g id="svga-group-eyesiriswrapper-left" transform="matrix(1,0,0,1,0,0)"><g id="svga-group-eyesiriscontrol-left" transform="matrix(1,0,0,1,0,0)"><g id="svga-group-eyesiris-left"><path id="SvgjsPath18310" d="M82 91.3c2.8 0 5.2 2.3 5.2 5.2s-2.3 5.2-5.2 5.2-5.2-2.3-5.2-5.2 2.3-5.2 5.2-5.2z" fill="#624c2f" stroke-width="none" opacity="1" stroke="none"></path><path id="SvgjsPath18311" d="M82 92.9c2 0 3.6 1.6 3.6 3.6S83.9 100 82 100s-3.6-1.6-3.6-3.6 1.6-3.5 3.6-3.5z" fill="#000000" stroke-width="none" opacity="1"></path><path id="SvgjsPath18312" d="m78.2 94 4 2.9-1.6-4.7c-.3-.4-2.3.7-2.4 1.8z" fill="#ffffff" stroke-width="none" opacity="1"></path></g></g></g><g id="svga-group-eyesfront-left"><path id="SvgjsPath17914" d="M70.73 98.03c0 6.9 4.93 12.5 11.02 12.5s11.02-5.6 11.02-12.5-4.93-12.5-11.02-12.5-11.02 5.59-11.02 12.5zm1.2.17s3.31-3.76 8-4.69c4.69-.93 7.55.87 9.25 2.12 1.7 1.25 3.12 3.92 3.12 3.92s-3.76.77-9.09.84c-5.34.06-11.28-2.19-11.28-2.19z" fill="#f3d4cf" stroke-width="none" opacity="1" stroke="none"></path><path id="SvgjsPath17915" d="M91.56 97.86s-2.08-4.66-7.97-5.44c-5.89-.79-14.54 3.87-15.21 5.61-.67 1.74 14.43 3.48 18.3 2.53 0 0-11.56-.39-14.54-2.3 0 0 2.3-4.27 8.93-4.83 6.61-.57 10.04 3.7 10.49 4.43z" fill="#f3d4cf" stroke-width="none" opacity="1" stroke="none"></path><path id="SvgjsPath17916" d="M92.49 100.56c-2.99 2.4-6.96 3.48-10.76 3.36-.17-.01-.17-.25 0-.26 3.97-.16 7.22-1.31 10.68-3.21.07-.04.15.05.08.11z" fill="#e4b3ab" stroke-width="none" opacity="1" stroke="none"></path><path id="SvgjsPath17917" d="M71.75 98.72c6.44 2.32 13.78 2.6 20.43.97.13.06.34-.05.27-.21-3.52-8.75-15.59-8.02-20.9-1.51-.22.27-.14.63.2.75zm.88-.65c5.34-6.21 15.21-6.15 19.35 1.37-6.45 1.12-13.13.73-19.35-1.37z" fill="#000000" stroke-width="none" opacity="1" stroke="none"></path></g></g></g><g id="svga-group-eyes-right-move" transform="matrix(1,0,0,1,0,0)"><g id="svga-group-eyes-right"><g id="svga-group-eyesback-right"><path id="SvgjsPath17907" d="M107.7 99.5s1.4-2.7 3.1-3.9c1.7-1.3 4.6-3.1 9.3-2.1 4.7.9 8 4.7 8 4.7s-5.9 2.2-11.3 2.2c-5.3-.1-9.1-.9-9.1-.9z" fill="#ffffff" stroke-width="none" opacity="1"></path></g><g id="svga-group-eyesiriswrapper-right" transform="matrix(1,0,0,1,0,0)"><g id="svga-group-eyesiriscontrol-right" transform="matrix(1,0,0,1,0,0)"><g id="svga-group-eyesiris-right"><path id="SvgjsPath18313" d="M118 91.3c2.8 0 5.2 2.3 5.2 5.2s-2.3 5.2-5.2 5.2-5.2-2.3-5.2-5.2 2.4-5.2 5.2-5.2z" fill="#624c2f" stroke-width="none" opacity="1" stroke="none"></path><path id="SvgjsPath18314" d="M118 92.9c2 0 3.6 1.6 3.6 3.6S120 100 118 100s-3.6-1.6-3.6-3.6 1.7-3.5 3.6-3.5z" fill="#000000" stroke-width="none" opacity="1"></path><path id="SvgjsPath18315" d="m114.2 94 4 2.9-1.6-4.7c-.2-.4-2.2.7-2.4 1.8z" fill="#ffffff" stroke-width="none" opacity="1"></path></g></g></g><g id="svga-group-eyesfront-right"><path id="SvgjsPath17918" d="M118.26 85.53c-6.08 0-11.02 5.6-11.02 12.5s4.93 12.5 11.02 12.5 11.02-5.6 11.02-12.5-4.94-12.5-11.02-12.5zm-1.47 14.85c-5.33-.06-9.09-.84-9.09-.84s1.41-2.67 3.12-3.92c1.7-1.25 4.56-3.05 9.25-2.12 4.69.93 8 4.69 8 4.69s-5.94 2.26-11.28 2.19z" fill="#f3d4cf" stroke-width="none" opacity="1" stroke="none"></path><path id="SvgjsPath17921" d="M108.44 97.86s2.08-4.66 7.97-5.44c5.89-.79 14.54 3.87 15.21 5.61.67 1.74-14.43 3.48-18.3 2.53 0 0 11.56-.39 14.54-2.3 0 0-2.3-4.27-8.93-4.83-6.61-.57-10.04 3.7-10.49 4.43z" fill="#ebc3bd" stroke-width="none" opacity="1" stroke="none"></path><path id="SvgjsPath17922" d="M107.51 100.56c2.99 2.4 6.96 3.48 10.76 3.36.17-.01.17-.25 0-.26-3.97-.16-7.22-1.31-10.68-3.21-.07-.04-.15.05-.08.11z" fill="#e4b3ab" stroke-width="none" opacity="1" stroke="none"></path><path id="SvgjsPath17923" d="M128.45 97.96c-5.31-6.51-17.38-7.23-20.9 1.51-.07.17.14.28.27.21 6.65 1.63 13.98 1.35 20.43-.97.34-.11.42-.47.2-.75zm-20.43 1.47c4.14-7.52 14.01-7.58 19.35-1.37-6.22 2.11-12.9 2.5-19.35 1.37z" fill="#000000" stroke-width="none" opacity="1" stroke="none"></path></g></g></g><g id="svga-group-facehighlight-single"></g><g id="svga-group-eyebrows-left-move" transform="matrix(1,0,0,1,0,0)"><g id="svga-group-eyebrows-left-rotate" transform="matrix(1,1.7453292519943295e-9,-1.7453292519943295e-9,1,1.5003287501258455e-7,-1.402671330197336e-7)"><g id="svga-group-eyebrows-left"><path id="SvgjsPath18652" d="M76.7 85.3c.9-.1 7.5 1.2 8.8 1.4 3.3.4 5.5-.3 5.8-.8s1.1-1.2.5-2.3c-.6-1.1-7.4-1.9-11.8-.7-8.7 2.4-13.2 7.4-13.2 7.4 2.5-2.5 9-4.9 9.9-5z" fill="#2a232b" stroke-width="none" opacity="1"></path><path id="SvgjsPath18653" d="M77.2 85.1c1.2 0 2.4-.4 3.5-.7.1 0 0-.2-.1-.2-1.1.3-2.3.4-3.4.7-.1.1-.1.2 0 .2zm2.3.2c-.1 0-.1.2.1.2 1.3-.1 2.6-.5 3.8-.8.8-.2 1.5-.5 1.9-1 .1-.1-.1-.2-.2-.1-1.2 1-3.9 1-5.6 1.7zm3.8.6c2.3.3 5.1-.7 6.3-2.2.1-.1-.1-.2-.2-.1-.8.7-1.6 1.2-2.7 1.6s-2.2.4-3.3.6c-.2 0-.2.1-.1.1zm3.2.2c1.8.2 4.4-1.1 4.4-2.5 0-.1-.3-.2-.3 0-.1.7-1 1.3-1.7 1.6-.8.4-1.6.4-2.4.7-.1.1-.1.2 0 .2zm-12.2-.2c.8-.3 1.6-.8 2.4-1.2.1-.1 0-.2-.1-.1-.8.4-1.8.7-2.3 1.3-.2 0-.1.1 0 0z" fill="#3a353a" stroke-width="none" opacity="1"></path><path id="SvgjsPath18654" d="M66.6 90.6s.1.1.2 0c.8-.6 1.5-1.2 2.2-1.7.8-.5 1.7-.9 2.5-1.3 1.7-.8 3.3-1.6 5.2-2.2 3.9.2 16.6 4.2 15.4-1.7v-.2c0-.1-.2-.1-.3 0v.1c-.1-.3-.4-.7-.9-.8-.1 0-.1 0-.1.1 0 0 .1 0 .1.1-.5-.3-1.3-.5-1.8-.4-3.9-1.1-9.3.2-12.8 1.3-4.1 1.4-7.7 3.6-9.8 6.5 0 .1 0 .1.1.2zm2.2-2c5.1-4.2 13.7-7.8 21.1-5.6.1 0 .2 0 .1-.1h.2c.5.1.8.3 1 .7.1.1.2 0 .2 0 0-.1 0-.2-.1-.3 0 0 .1 0 .1.1.2.2.3.4.2.7-.1.1-.2.1-.2.2 0 0 0 .1.1.1.2 0 .4-.1.5-.2-.4 5.1-11.9.6-15.5 1.2 0 0-.1 0-.1.1-2 .3-3.6 1.3-5.3 2.1-.9.2-1.6.6-2.3 1z" fill="#1b141c" stroke-width="none" opacity="1"></path></g></g></g><g id="svga-group-eyebrows-right-move" transform="matrix(1,0,0,1,0,0)"><g id="svga-group-eyebrows-right-rotate" transform="matrix(1,1.7453292519943295e-9,-1.7453292519943295e-9,1,1.5032446754048578e-7,-2.0871141259704018e-7)"><g id="svga-group-eyebrows-right"><path id="SvgjsPath18655" d="M133.1 90.3s-4.4-5-13.2-7.4c-4.4-1.2-11.1-.4-11.8.7-.6 1.1.2 1.8.5 2.3s2.5 1.2 5.8.8c1.3-.2 7.9-1.5 8.8-1.4 1 .1 7.5 2.5 9.9 5z" fill="#2a232b" stroke-width="none" opacity="1"></path><path id="SvgjsPath18656" d="M122.8 84.9c-1.1-.3-2.3-.4-3.4-.7-.1 0-.2.1-.1.2 1.1.3 2.3.7 3.5.7.1 0 .1-.1 0-.2zm-7.9-1.5c-.1-.1-.2 0-.2.1.4.6 1.1.8 1.9 1 1.2.3 2.5.7 3.8.8.1 0 .1-.1.1-.2-1.7-.5-4.3-.5-5.6-1.7zm1.8 2.3c-1.1-.2-2.3-.3-3.3-.6s-1.9-.9-2.7-1.6c-.1-.1-.3 0-.2.1 1.2 1.5 3.9 2.5 6.3 2.2 0 .1 0 0-.1-.1zm-3.2.2c-.8-.2-1.7-.3-2.4-.7-.8-.4-1.6-.9-1.7-1.6 0-.1-.3-.1-.3 0 .1 1.4 2.6 2.7 4.4 2.5.2 0 .1-.1 0-.2zm12.3 0c-.6-.5-1.6-.9-2.4-1.2-.1 0-.2.1-.1.1.8.4 1.6.9 2.5 1.1 0 .1.1 0 0 0z" fill="#3a353a" stroke-width="none" opacity="1"></path><path id="SvgjsPath18657" d="M133.5 90.4c-2.1-2.9-5.8-5.2-9.8-6.5-3.5-1.2-8.9-2.4-12.8-1.3-.5-.1-1.3.1-1.8.4 0 0 .1 0 .1-.1l-.1-.1c-.4.1-.8.4-.9.8v-.1c0-.1-.2-.1-.3 0v.2c-1.1 5.9 11.5 1.9 15.4 1.7 1.9.5 3.5 1.3 5.2 2.2.9.4 1.8.8 2.5 1.3.8.6 1.4 1.2 2.2 1.7h.2c.1-.1.1-.1.1-.2zm-4.6-3c-1.7-.8-3.3-1.8-5.3-2.1l-.1-.1c-3.6-.6-15 4-15.5-1.2.1.1.3.3.5.2.1 0 .1-.1.1-.1 0-.1-.1-.2-.2-.2-.1-.2 0-.5.2-.7 0 0 .1 0 .1-.1-.1.1-.1.2-.1.3 0 .1.2.1.2 0 .2-.3.5-.6 1-.7h.2c0 .1.1.1.1.1 7.4-2.1 15.9 1.5 21.1 5.6-.7-.2-1.4-.6-2.3-1z" fill="#1b141c" stroke-width="none" opacity="1"></path></g></g></g><g id="svga-group-nose-single-move" transform="matrix(1,0,0,1,0,0)"><g id="svga-group-nose-single"><path id="SvgjsPath17191" d="M103.3 114.98c.02.07.04.13.08.19.3.5.8.49 1.28.67.37.14.67.41 1.05.55.58.21 1.04-.42.93-.93-.2-.96-1.64-1.8-2.63-1.51.14-.28.26-.58.34-.92.06-.27-.33-.46-.46-.19-1.82 3.66-6.13 4.01-8.33.41-.04-.07-.17-.03-.14.06.1.31.23.59.38.85-.95-.05-2.34.8-2.03 1.78-.04.4.4.62.74.54.31-.01.59-.16.86-.32.24-.14.62-.17.94-.33.25-.12.37-.32.41-.54.21.18.44.34.68.47-1.41.04-2.67 1.32-4.11.48-2.74-1.62.01-4.96 1.39-6.41.11-.12-.06-.28-.18-.18-1.68 1.47-3.88 3.86-2.42 6.23 1.46 2.38 3.82.47 5.78.12 1.81.77 4.07.42 5.44-1.02z" fill="#c5796d" stroke-width="none" opacity="1" transform="translate(0 2)" stroke="none"></path><path id="SvgjsPath17192" d="M104.73 109.22c-.12-.06-.27.1-.16.2 1.4 1.24 3.42 2.4 3.52 4.52.05 1.18-.56 2.14-1.68 2.45-1.16.32-2.29-.23-3.39-.56-.16-.05-.23.17-.11.26 1.83 1.31 4.86 1.82 5.69-.91.81-2.66-1.73-4.92-3.87-5.96z" fill="#c5796d" stroke-width="none" opacity="1" transform="translate(0 2)" stroke="none"></path><path id="SvgjsPath17193" d="M98.05 106.55c2.18-.59 4.11-.09 6.02 1 .09.05.21-.08.12-.16-1.7-1.45-4.12-1.68-6.19-1.02-.11.04-.06.21.05.18z" fill="#c5796d" stroke-width="none" opacity="1" transform="translate(0 2)" stroke="none"></path><path id="SvgjsPath17194" d="M97.02 105.73c1.08-2.37 1.09-5.39.14-7.79-.04-.1-.18-.06-.16.04.45 2.7.3 4.96-.27 7.63-.04.16.21.29.29.12z" fill="#c5796d" stroke-width="none" opacity="1" transform="translate(0 2)" stroke="none"></path><path id="SvgjsPath17195" d="M101.8 109.08c-.45-.49-1.27-.56-1.83-.24-.26.15-.44.37-.57.62a2.8 2.8 0 0 0-.16-.2c-.84-.99-2.54-.17-2.51 1.04.03 1.75 1.98 3.22 3.67 2.79 1.72-.42 2.65-2.62 1.4-4.01z" fill="#fbe5e2" stroke-width="none" opacity="1" transform="translate(0 2)" stroke="none"></path></g></g><g id="svga-group-hair-front"><path id="SvgjsPath19933" d="M143.1 79.3c-.9 7.7-2.8 15-4.8 18.6 0 0-.3-14.3-3.7-21.1S121.2 62.2 120 56.5c0 0 1.5 3.3 3.8 4.7s10.3 7.6 12.2 9.7 5 7.3 6.3 8c.1.1.5.2.8.4zm-76.2 56.4c0 .6-.2 2.2-.5 4.5-.7-6.6-2.1-13.9-2.1-13.9s-30.2 44.5-26.2 59.2c4 14.7 12.1 24.9 12.9 25.7.8.8 4 1.9 5.4 4.5.5 1 10.5-8.8 5.6-20.6-4.8-11.8-5.9-19.8-1.9-26 .7-1.1 1.3-2.3 1.9-3.5-.8 4.3-1.5 7.7-1.7 8.7-.9 3.5-.9 8.5 1.5 14s6.1 5.8 6.1 5.8c-1.7-2.7-1.8-7.3-.2-12.1s4.2-9.5 5.6-14.5c1.5-5.2 2.2-11.4-2.7-21.7-2.7-6.1-3.7-10.1-3.7-10.1z" fill="#221b23" stroke-width="none" opacity="1"></path><path id="SvgjsPath19934" d="M120 56.5s-18.2 6.8-32.8 1.7-24 15.1-22.8 27.1 9.4 27.7 4.6 47.1c-4.8 19.4-18.8 34.2-22.8 42.8s-4 17.4 0 23.7 6 10.8 7.1 17.4c0 0-1.5-3.6-7.4-8-9.3-6.9-13.1-15.1-12.5-27.9s6.2-22.8 11.1-33.1c4.8-10.3 7.3-23.3 3.9-31.9-3.4-8.6-7.3-20.5-5.9-41.7 1.4-21.1 13.1-32.4 27.7-41s35.7-7 49.1 1.3 11.4 15.7 11.4 15.7 4-2 10 7.1 2 33.4-2.3 41.1c0 0-.3-14.3-3.7-21.1S121.2 62.2 120 56.5z" fill="#2a232b" stroke-width="none" opacity="1"></path><path id="SvgjsPath19935" d="M127.6 50.2c-2.3 1.5-4.7 1.5-6.1.8-4.1-1.8-7.4-8-10.8-11.7-5.7-6.2-7.2-9.4-20.3-10.1-9.3-.5-16.7 1.9-21 3.8-14.2 8.5-25.5 19.8-26.9 40.6-1.4 21.1 2.4 33.1 5.9 41.7s.9 21.6-3.9 31.9c-4.8 10.3-10.5 20.3-11.1 33.1s3.3 21 12.5 27.9c5.9 4.4 7.4 8 7.4 8-1.6-4.5-4-6.3-8.7-10.6-4.8-4.3-9.4-16.4-8.4-25.6s9.7-25 13.8-31.4c4.1-6.4 7.4-17.4 8.8-23.3 1.4-5.9.2-10.8-3.9-20.9s-6.3-36.5-5.6-41c1.1-8.3 3.1-14 9.4-20.6 9.4-9.8 21.6-11.3 28.9-11.4 11.8-.1 20 7.7 21.5 9.9s10.5 11.9 12.8 12.3c2.3.4 8-3.4 8-3.4l.7-.6s.3-1 0-2.6c-.5.9-1.5 2.2-3 3.2zM102.2 60c.3 0 .7 0 1-.1.2 0 .5 0 .8-.1.4 0 .9-.1 1.3-.1.2 0 .5-.1.8-.1.3 0 .7-.1 1-.1.3 0 .6-.1.9-.1.3 0 .6-.1.9-.1.2 0 .4-.1.6-.1.4-.1.8-.2 1.2-.2.2 0 .4-.1.6-.1.4-.1.8-.2 1.1-.2.2 0 .3-.1.4-.1.3-.1.6-.2.9-.2.1 0 .2 0 .3-.1.4-.1.8-.2 1.1-.3.1 0 .2 0 .3-.1.4-.1.7-.2 1.1-.3 2.2-.6 3.5-1.1 3.5-1.1s-5 .6-10.9-5.5c-2.3-3.7-6.1-10.5-12-12.8-6.8-2.7-29.5-3.9-37.2 12.5s-2.7 30.5.6 37.4c3.3 6.9 8.5 20.1 8.3 28.7-.2 8.7-2.3 21-4.6 26.4-2.3 5.4-17.6 24.4-20.8 33.3-3.3 9.3-4.4 15.6 3.5 28.3 3 4.9 5 6.3 5.8 8.1-1.2-5-3.1-9-6.5-14.2-4-6.3-4-15.1 0-23.7s18-23.4 22.8-42.8-3.4-35.1-4.6-47.1S72.7 52.9 87.2 58c1.9.7 3.9 1.1 5.8 1.4h.1c.2 0 .4.1.7.1.4 0 .8.1 1.2.1.3 0 .6 0 .8.1.4 0 .8.1 1.3.1h4.1c.3.3.7.3 1 .2z" fill="#221b23" stroke-width="none" opacity="1"></path><path id="SvgjsPath19936" d="M63.3 148.6s-2.6 6.6-9.3 14.7c-8.9 10.7-10.7 17.4-7.4 25.8 3.3 8.4 7.8 12.8 9.3 16.5s1.1 7.6 1.1 7.6 1.9-4.1 1.1-7.2c-.7-3.1-7.4-13.9-8.4-20s.1-12.9 4.2-18.7c3.5-4.9 7.6-11.6 9.4-18.7zm1.9 1.5s-2.5 11.6-6 17.4c-3.5 5.8-4.6 13-2 19.1 2.6 6.1 7.6 14.1 7.2 19.4 0 0 3.4-6.4.2-13s-4.3-16.4-1.7-23.1c2.6-6.6 2.9-15.2 2.3-19.8z" fill="#2a232b" stroke-width="none" opacity="1"></path><path id="SvgjsPath19937" d="M93.1 59.7c.3 0 .5.1.7.1.4 0 .8.1 1.2.1.3 0 .6 0 .8.1.4 0 .8.1 1.3.1h1.5c-2.4-1-5.2-2.6-7.6-5.4-4.8-5.9-8.5-8.6-16.2-7.8S59 58.1 59.5 69c.5 10.8 4 17.7 6.2 23.6-.6-2.6-1.1-5-1.3-7.3-1.1-12 8.3-32.2 22.8-27.1 2 .7 3.9 1.1 5.9 1.5z" fill="#1b141c" stroke-width="none" opacity="1"></path></g><g id="svga-group-glasses-single-move" transform="matrix(1,0,0,1,0,0)"><g id="svga-group-glasses-single"><path id="SvgjsPath20144" d="M96 95s.3-2.1-3.3-3.3c-2.7-.9-5.6-1.1-7.9-1.1s-9.7-.1-11.6.1-4.7.4-5.7 3.2.3 7.5 4.1 9.8c3.8 2.3 11.6 2.5 16.6 1 5.1-1.5 7.4-5 7.8-9.7z" fill="#ffffff" stroke-width="none" opacity="0.44"></path><path id="SvgjsPath20145" d="M104 95s-.3-2.1 3.3-3.3c2.7-.9 5.6-1.1 7.9-1.1s9.7-.1 11.6.1c1.9.2 4.7.4 5.6 3.2.9 2.8-.3 7.5-4.1 9.8-3.8 2.3-11.6 2.5-16.6 1-5-1.5-7.3-5-7.7-9.7z" fill="#ffffff" stroke-width="none" opacity="0.44"></path><path id="SvgjsPath20146" d="M96 94.4s3.4-1.6 8 0v.9s-4.9-.9-8.1 0l.1-.9z" fill="#000000" stroke-width="none" opacity="1" stroke="none"></path><path id="SvgjsPath20147" d="M80.8 106c-3.9 0-7.3-.7-9.4-2-3.4-2.1-4.7-6-4.5-8.7v-.1h-2.3v-1.9h2.8v-.1c1.2-2.3 3.8-2.6 5.5-2.8h.2c.8-.1 2.7-.1 5.7-.1h6c2.3 0 5.2.1 8 1.1 3.7 1.3 3.6 3.4 3.5 3.7-.5 5.2-3.2 8.6-8 10-2.1.6-4.7.9-7.5.9zm-1.9-15c-3 0-4.9 0-5.7.1H73c-1.9.2-4.3.4-5.2 2.9-.9 2.8.4 7.2 3.9 9.4 2 1.2 5.2 1.9 9 1.9 2.6 0 5.3-.3 7.3-1 4.6-1.4 7.1-4.5 7.5-9.4 0-.2.1-1.8-3.1-2.9-2.7-.9-5.6-1-7.8-1h-5.7zm40.3 15c-2.7 0-5.4-.4-7.5-1-4.8-1.5-7.5-4.8-8-10 0-.2-.2-2.4 3.5-3.7 2.8-.9 5.8-1.1 8-1.1h6c3 0 4.9 0 5.7.1h.2c1.7.2 4.4.4 5.5 2.8v.1h2.8v1.9h-2.3v.1c.2 2.7-1.1 6.6-4.5 8.7-2.1 1.4-5.6 2.1-9.4 2.1zm1.9-15h-5.9c-2.2 0-5.1.1-7.8 1-3.2 1.1-3.1 2.7-3.1 2.9.4 5 2.9 8 7.5 9.4 2 .6 4.7 1 7.3 1 3.8 0 7.1-.7 9-1.9 3.5-2.2 4.9-6.6 3.9-9.4-.8-2.5-3.2-2.7-5.2-2.9h-.2c-.6-.1-2.5-.1-5.5-.1z" fill="#000000" stroke-width="none" opacity="1" stroke="none"></path><path id="SvgjsPath20148" d="M121.2 90.1v.2c3 0 4.8 0 5.7.1h.2c1.7.2 4.3.4 5.4 2.7l.1.1h2.7V95H133v.2c.2 2.7-1.1 6.5-4.5 8.6-2.1 1.3-5.5 2-9.3 2-2.7 0-5.4-.4-7.5-1-4.8-1.5-7.4-4.8-7.9-9.9 0-.2-.2-2.3 3.5-3.5 2.8-.9 5.7-1.1 8-1.1h6.1l-.2-.2m-2 15.3c3.8 0 7.1-.7 9.1-1.9 3.6-2.2 4.9-6.7 4-9.6-.9-2.6-3.4-2.8-5.3-3h-.2c-.8-.1-2.6-.1-5.7-.1h-5.9c-2.2 0-5.1.1-7.8 1-3.2 1.1-3.2 2.8-3.1 3 .4 5 2.9 8.1 7.6 9.5 2 .8 4.6 1.1 7.3 1.1m2-15.3h-6c-2.3 0-5.2.1-8 1.1-3.8 1.3-3.7 3.5-3.6 3.8.5 5.2 3.2 8.7 8.1 10.1 2.1.7 4.8 1 7.6 1 3.6 0 7.2-.6 9.5-2.1 3.2-2 4.8-5.8 4.6-8.8h2.3V93h-2.8c-1.2-2.4-3.8-2.7-5.6-2.8h-.2c-1.2 0-3.5-.1-5.9-.1zm-2 15.1c-2.6 0-5.2-.3-7.3-1-4.6-1.4-7-4.4-7.4-9.3 0-.1-.1-1.7 3-2.8 2.7-.9 5.5-1 7.7-1h6c2.4 0 4.7 0 5.6.1h.2c1.9.2 4.2.4 5.1 2.8.9 2.7-.4 7.1-3.9 9.3-2.2 1.3-5.6 1.9-9 1.9zM78.8 90.4h6.1c2.2 0 5.2.1 8 1.1 3.6 1.2 3.5 3.3 3.5 3.5-.5 5.1-3.1 8.5-7.9 9.9-2.1.7-4.8 1-7.5 1-3.9 0-7.3-.7-9.3-2-3.3-2.1-4.7-5.9-4.5-8.6v-.2h-2.3v-1.7H67.7l.1-.1c1.1-2.3 3.7-2.5 5.4-2.7h.2c.6-.2 2.4-.2 5.4-.2m2 15c2.7 0 5.3-.3 7.3-1 4.7-1.4 7.1-4.5 7.6-9.6 0-.2.1-1.9-3.2-3-2.7-.9-5.6-1-7.8-1h-5.9c-3 0-4.9 0-5.7.1l-.1.1c-1.9.2-4.4.4-5.3 3-.9 2.8.4 7.3 4 9.6 2 1.1 5.4 1.8 9.1 1.8m-2-15.3c-2.4 0-4.7 0-5.7.1h-.2c-1.8.2-4.4.4-5.6 2.8h-2.8v2.2h2.3c-.2 3 1.3 6.8 4.6 8.8 2.3 1.4 5.9 2.1 9.5 2.1 2.7 0 5.4-.4 7.6-1 4.9-1.5 7.6-4.9 8.1-10.1 0-.2.2-2.5-3.6-3.8-2.8-1-5.8-1.1-8-1.1h-6.2zm2 15.1c-3.4 0-6.8-.6-9-1.9-3.5-2.2-4.8-6.5-3.9-9.3.8-2.4 3.2-2.6 5.1-2.8h.2c.9-.1 3.3-.1 5.6-.1h6c2.2 0 5.1.1 7.7 1 3.1 1.1 3 2.7 3 2.8-.4 4.9-2.9 7.9-7.4 9.3-2 .7-4.6 1-7.3 1z" fill="#000000" stroke-width="none" opacity="1" stroke="none"></path></g></g></g></g></g><rect id="svga-credit-rect" width="200" height="15" x="0" y="185" fill="#ecf0f1" opacity="0.5" style="display: none;"></rect><text id="svga-credit-text" font-family="Avenir Next, Roboto, Helvetica, Arial, sans-serif" font-size="10px" text-anchor="start" font-weight="400" size="10px" anchor="start" weight="400" fill="#333333" x="33.43669891357422" y="182.60824704170227" style="display: none;"><tspan id="SvgjsTspan16795" dy="13" x="33.43669891357422">Created on AvatarMaker.com</tspan></text></g><defs id="SvgjsDefs16747"><linearGradient id="SvgjsLinearGradient18700" x1="118.8" y1="82.84" x2="118.8" y2="112.98" gradientUnits="userSpaceOnUse" class="svga-on-canvas-glasses-gradient-single-0-null"><stop id="SvgjsStop18701" stop-opacity="1" stop-color="#b4c0cf" offset="0" ></stop><stop id="SvgjsStop18702" stop-opacity="0.9374" stop-color="#abbace" offset="0.0626" ></stop><stop id="SvgjsStop18703" stop-opacity="0.679" stop-color="#8aa3ca" offset="0.321" ></stop><stop id="SvgjsStop18704" stop-opacity="0.4305" stop-color="#7393c6" offset="0.5695" ></stop><stop id="SvgjsStop18705" stop-opacity="0.1987" stop-color="#6589c5" offset="0.8013" ></stop><stop id="SvgjsStop18706" stop-opacity="0" stop-color="#6086c4" offset="1" ></stop></linearGradient><linearGradient id="SvgjsLinearGradient18708" x1="81.2" y1="82.84" x2="81.2" y2="112.98" gradientUnits="userSpaceOnUse" class="svga-on-canvas-glasses-gradient-single-1-null"><stop id="SvgjsStop18709" stop-opacity="1" stop-color="#b4c0cf" offset="0" ></stop><stop id="SvgjsStop18710" stop-opacity="0.9374" stop-color="#abbace" offset="0.0626" ></stop><stop id="SvgjsStop18711" stop-opacity="0.679" stop-color="#8aa3ca" offset="0.321" ></stop><stop id="SvgjsStop18712" stop-opacity="0.4305" stop-color="#7393c6" offset="0.5695" ></stop><stop id="SvgjsStop18713" stop-opacity="0.1987" stop-color="#6589c5" offset="0.8013" ></stop><stop id="SvgjsStop18714" stop-opacity="0" stop-color="#6086c4" offset="1" ></stop></linearGradient><linearGradient id="SvgjsLinearGradient18780" x1="81.9825" y1="87.8318" x2="81.9825" y2="111.9101" gradientUnits="userSpaceOnUse" class="svga-on-canvas-glasses-gradient-single-0-null"><stop id="SvgjsStop18781" stop-opacity="1" stop-color="#9ab4d3" offset="0" ></stop><stop id="SvgjsStop18782" stop-opacity="0.7593" stop-color="#93aed1" offset="0.2407" ></stop><stop id="SvgjsStop18783" stop-opacity="0.4009" stop-color="#7e9ecc" offset="0.5991" ></stop><stop id="SvgjsStop18784" stop-opacity="0" stop-color="#6086c4" offset="1" ></stop></linearGradient><linearGradient id="SvgjsLinearGradient18786" x1="-18.0175" y1="87.8318" x2="-18.0175" y2="111.9101" gradientTransform="matrix(-1 0 0 1 100 0)" gradientUnits="userSpaceOnUse" class="svga-on-canvas-glasses-gradient-single-1-null"><stop id="SvgjsStop18787" stop-opacity="1" stop-color="#9ab4d3" offset="0" ></stop><stop id="SvgjsStop18788" stop-opacity="0.7593" stop-color="#93aed1" offset="0.2407" ></stop><stop id="SvgjsStop18789" stop-opacity="0.4009" stop-color="#7e9ecc" offset="0.5991" ></stop><stop id="SvgjsStop18790" stop-opacity="0" stop-color="#6086c4" offset="1" ></stop></linearGradient><linearGradient id="SvgjsLinearGradient19542" x1="118.8" y1="82.84" x2="118.8" y2="112.98" gradientUnits="userSpaceOnUse" class="svga-on-canvas-glasses-gradient-single-0-null"><stop id="SvgjsStop19543" stop-opacity="1" stop-color="#b4c0cf" offset="0" ></stop><stop id="SvgjsStop19544" stop-opacity="0.9374" stop-color="#abbace" offset="0.0626" ></stop><stop id="SvgjsStop19545" stop-opacity="0.679" stop-color="#8aa3ca" offset="0.321" ></stop><stop id="SvgjsStop19546" stop-opacity="0.4305" stop-color="#7393c6" offset="0.5695" ></stop><stop id="SvgjsStop19547" stop-opacity="0.1987" stop-color="#6589c5" offset="0.8013" ></stop><stop id="SvgjsStop19548" stop-opacity="0" stop-color="#6086c4" offset="1" ></stop></linearGradient><linearGradient id="SvgjsLinearGradient19550" x1="81.2" y1="82.84" x2="81.2" y2="112.98" gradientUnits="userSpaceOnUse" class="svga-on-canvas-glasses-gradient-single-1-null"><stop id="SvgjsStop19551" stop-opacity="1" stop-color="#b4c0cf" offset="0" ></stop><stop id="SvgjsStop19552" stop-opacity="0.9374" stop-color="#abbace" offset="0.0626" ></stop><stop id="SvgjsStop19553" stop-opacity="0.679" stop-color="#8aa3ca" offset="0.321" ></stop><stop id="SvgjsStop19554" stop-opacity="0.4305" stop-color="#7393c6" offset="0.5695" ></stop><stop id="SvgjsStop19555" stop-opacity="0.1987" stop-color="#6589c5" offset="0.8013" ></stop><stop id="SvgjsStop19556" stop-opacity="0" stop-color="#6086c4" offset="1" ></stop></linearGradient><linearGradient id="SvgjsLinearGradient19622" x1="81.0729" y1="112.2763" x2="81.0729" y2="92.4328" gradientTransform="matrix(1 0 0 -1 0 202)" gradientUnits="userSpaceOnUse" class="svga-on-canvas-glasses-gradient-single-0-null"><stop id="SvgjsStop19623" stop-opacity="1" stop-color="#97a1ad" offset="0" ></stop><stop id="SvgjsStop19624" stop-opacity="0.6667" stop-color="#889ab3" offset="0.3333" ></stop><stop id="SvgjsStop19625" stop-opacity="3.130000e-02" stop-color="#6287c3" offset="0.9687" ></stop><stop id="SvgjsStop19626" stop-opacity="0" stop-color="#6086c4" offset="1" ></stop></linearGradient><linearGradient id="SvgjsLinearGradient19628" x1="-1736.927" y1="112.2763" x2="-1736.927" y2="92.4328" gradientTransform="matrix(-1 0 0 -1 -1618 202)" gradientUnits="userSpaceOnUse" class="svga-on-canvas-glasses-gradient-single-1-null"><stop id="SvgjsStop19629" stop-opacity="1" stop-color="#97a1ad" offset="0" ></stop><stop id="SvgjsStop19630" stop-opacity="0.6667" stop-color="#889ab3" offset="0.3333" ></stop><stop id="SvgjsStop19631" stop-opacity="3.130000e-02" stop-color="#6287c3" offset="0.9687" ></stop><stop id="SvgjsStop19632" stop-opacity="0" stop-color="#6086c4" offset="1" ></stop></linearGradient><linearGradient id="SvgjsLinearGradient19688" x1="81.9825" y1="87.8318" x2="81.9825" y2="111.9101" gradientUnits="userSpaceOnUse" class="svga-on-canvas-glasses-gradient-single-0-null"><stop id="SvgjsStop19689" stop-opacity="1" stop-color="#9ab4d3" offset="0" ></stop><stop id="SvgjsStop19690" stop-opacity="0.7593" stop-color="#93aed1" offset="0.2407" ></stop><stop id="SvgjsStop19691" stop-opacity="0.4009" stop-color="#7e9ecc" offset="0.5991" ></stop><stop id="SvgjsStop19692" stop-opacity="0" stop-color="#6086c4" offset="1" ></stop></linearGradient><linearGradient id="SvgjsLinearGradient19694" x1="-18.0175" y1="87.8318" x2="-18.0175" y2="111.9101" gradientTransform="matrix(-1 0 0 1 100 0)" gradientUnits="userSpaceOnUse" class="svga-on-canvas-glasses-gradient-single-1-null"><stop id="SvgjsStop19695" stop-opacity="1" stop-color="#9ab4d3" offset="0" ></stop><stop id="SvgjsStop19696" stop-opacity="0.7593" stop-color="#93aed1" offset="0.2407" ></stop><stop id="SvgjsStop19697" stop-opacity="0.4009" stop-color="#7e9ecc" offset="0.5991" ></stop><stop id="SvgjsStop19698" stop-opacity="0" stop-color="#6086c4" offset="1" ></stop></linearGradient><linearGradient id="SvgjsLinearGradient19752" x1="81.0729" y1="112.2763" x2="81.0729" y2="92.4328" gradientTransform="matrix(1 0 0 -1 0 202)" gradientUnits="userSpaceOnUse" class="svga-on-canvas-glasses-gradient-single-0-null"><stop id="SvgjsStop19753" stop-opacity="1" stop-color="#97a1ad" offset="0" ></stop><stop id="SvgjsStop19754" stop-opacity="0.6667" stop-color="#889ab3" offset="0.3333" ></stop><stop id="SvgjsStop19755" stop-opacity="3.130000e-02" stop-color="#6287c3" offset="0.9687" ></stop><stop id="SvgjsStop19756" stop-opacity="0" stop-color="#6086c4" offset="1" ></stop></linearGradient><linearGradient id="SvgjsLinearGradient19758" x1="-1736.927" y1="112.2763" x2="-1736.927" y2="92.4328" gradientTransform="matrix(-1 0 0 -1 -1618 202)" gradientUnits="userSpaceOnUse" class="svga-on-canvas-glasses-gradient-single-1-null"><stop id="SvgjsStop19759" stop-opacity="1" stop-color="#97a1ad" offset="0" ></stop><stop id="SvgjsStop19760" stop-opacity="0.6667" stop-color="#889ab3" offset="0.3333" ></stop><stop id="SvgjsStop19761" stop-opacity="3.130000e-02" stop-color="#6287c3" offset="0.9687" ></stop><stop id="SvgjsStop19762" stop-opacity="0" stop-color="#6086c4" offset="1" ></stop></linearGradient><linearGradient id="SvgjsLinearGradient19818" x1="81.9825" y1="87.8318" x2="81.9825" y2="111.9101" gradientUnits="userSpaceOnUse" class="svga-on-canvas-glasses-gradient-single-0-null"><stop id="SvgjsStop19819" stop-opacity="1" stop-color="#9ab4d3" offset="0" ></stop><stop id="SvgjsStop19820" stop-opacity="0.7593" stop-color="#93aed1" offset="0.2407" ></stop><stop id="SvgjsStop19821" stop-opacity="0.4009" stop-color="#7e9ecc" offset="0.5991" ></stop><stop id="SvgjsStop19822" stop-opacity="0" stop-color="#6086c4" offset="1" ></stop></linearGradient><linearGradient id="SvgjsLinearGradient19824" x1="-18.0175" y1="87.8318" x2="-18.0175" y2="111.9101" gradientTransform="matrix(-1 0 0 1 100 0)" gradientUnits="userSpaceOnUse" class="svga-on-canvas-glasses-gradient-single-1-null"><stop id="SvgjsStop19825" stop-opacity="1" stop-color="#9ab4d3" offset="0" ></stop><stop id="SvgjsStop19826" stop-opacity="0.7593" stop-color="#93aed1" offset="0.2407" ></stop><stop id="SvgjsStop19827" stop-opacity="0.4009" stop-color="#7e9ecc" offset="0.5991" ></stop><stop id="SvgjsStop19828" stop-opacity="0" stop-color="#6086c4" offset="1" ></stop></linearGradient><linearGradient id="SvgjsLinearGradient19970" x1="81.0729" y1="112.2763" x2="81.0729" y2="92.4328" gradientTransform="matrix(1 0 0 -1 0 202)" gradientUnits="userSpaceOnUse" class="svga-on-canvas-glasses-gradient-single-0-null"><stop id="SvgjsStop19971" stop-opacity="1" stop-color="#97a1ad" offset="0" ></stop><stop id="SvgjsStop19972" stop-opacity="0.6667" stop-color="#889ab3" offset="0.3333" ></stop><stop id="SvgjsStop19973" stop-opacity="3.130000e-02" stop-color="#6287c3" offset="0.9687" ></stop><stop id="SvgjsStop19974" stop-opacity="0" stop-color="#6086c4" offset="1" ></stop></linearGradient><linearGradient id="SvgjsLinearGradient19976" x1="-1736.927" y1="112.2763" x2="-1736.927" y2="92.4328" gradientTransform="matrix(-1 0 0 -1 -1618 202)" gradientUnits="userSpaceOnUse" class="svga-on-canvas-glasses-gradient-single-1-null"><stop id="SvgjsStop19977" stop-opacity="1" stop-color="#97a1ad" offset="0" ></stop><stop id="SvgjsStop19978" stop-opacity="0.6667" stop-color="#889ab3" offset="0.3333" ></stop><stop id="SvgjsStop19979" stop-opacity="3.130000e-02" stop-color="#6287c3" offset="0.9687" ></stop><stop id="SvgjsStop19980" stop-opacity="0" stop-color="#6086c4" offset="1" ></stop></linearGradient><linearGradient id="SvgjsLinearGradient20036" x1="81.4379" y1="89.2881" x2="81.4379" y2="108.3286" gradientUnits="userSpaceOnUse" class="svga-on-canvas-glasses-gradient-single-0-null"><stop id="SvgjsStop20037" stop-opacity="1" stop-color="#ffba38" offset="0.004166667" ></stop><stop id="SvgjsStop20038" stop-opacity="0.8314" stop-color="#f5b232" offset="0.1721" ></stop><stop id="SvgjsStop20039" stop-opacity="0.541" stop-color="#d99d24" offset="0.4612" ></stop><stop id="SvgjsStop20040" stop-opacity="0.1664" stop-color="#ac7b0c" offset="0.8343" ></stop><stop id="SvgjsStop20041" stop-opacity="0" stop-color="#966a00" offset="1" ></stop></linearGradient><linearGradient id="SvgjsLinearGradient20044" x1="-18.5595" y1="89.2881" x2="-18.5595" y2="108.3286" gradientTransform="matrix(-1 0 0 1 100 0)" gradientUnits="userSpaceOnUse" class="svga-on-canvas-glasses-gradient-single-2-null"><stop id="SvgjsStop20045" stop-opacity="1" stop-color="#ffba38" offset="0.004166667" ></stop><stop id="SvgjsStop20046" stop-opacity="0.8314" stop-color="#f5b232" offset="0.1721" ></stop><stop id="SvgjsStop20047" stop-opacity="0.541" stop-color="#d99d24" offset="0.4612" ></stop><stop id="SvgjsStop20048" stop-opacity="0.1664" stop-color="#ac7b0c" offset="0.8343" ></stop><stop id="SvgjsStop20049" stop-opacity="0" stop-color="#966a00" offset="1" ></stop></linearGradient></defs></svg>