<?xml version="1.0" standalone="no"?>
<!DOCTYPE svg PUBLIC "-//W3C//DTD SVG 20010904//EN"
 "http://www.w3.org/TR/2001/REC-SVG-20010904/DTD/svg10.dtd">
<svg version="1.0" xmlns="http://www.w3.org/2000/svg"
 width="1200.000000pt" height="630.000000pt" viewBox="0 0 1200.000000 630.000000"
 preserveAspectRatio="xMidYMid meet">

<g transform="translate(0.000000,630.000000) scale(0.100000,-0.100000)"
fill="#000000" stroke="none">
<path d="M5870 6285 c-191 -24 -382 -71 -563 -139 -76 -29 -383 -171 -522
-242 -264 -135 -498 -333 -659 -559 -78 -109 -178 -316 -220 -455 -62 -207
-78 -335 -87 -705 -5 -181 -12 -357 -15 -390 -7 -72 5 -170 58 -455 54 -291
55 -296 32 -304 -37 -12 -77 -58 -96 -109 -46 -118 -30 -324 48 -640 44 -173
77 -247 149 -327 16 -17 27 -48 35 -100 96 -603 509 -1233 1034 -1575 190
-124 394 -211 604 -257 148 -33 393 -30 557 6 375 81 689 256 999 556 204 197
364 413 493 665 104 205 185 430 213 592 7 46 21 85 36 105 100 137 116 176
167 398 52 225 60 293 55 432 -5 134 -16 167 -70 224 l-30 32 21 73 c48 174
76 337 97 559 19 211 17 301 -11 465 -13 77 -29 196 -35 265 -25 282 -82 549
-174 805 -149 420 -372 723 -624 849 -80 40 -210 68 -311 65 -75 -1 -95 2
-156 28 -300 127 -688 179 -1025 138z m435 -1409 c364 -94 567 -338 566 -681
0 -261 -80 -424 -364 -748 -184 -210 -237 -330 -252 -570 l-7 -107 -301 2
-302 3 -3 127 c-6 270 70 459 297 743 197 246 236 324 229 462 -5 97 -32 147
-104 193 -137 86 -375 74 -590 -31 -47 -23 -86 -40 -88 -38 -2 2 -24 74 -51
159 -26 85 -60 193 -75 240 -15 47 -25 88 -23 93 2 4 35 21 71 38 241 111 440
150 722 144 147 -3 191 -8 275 -29z m-245 -2338 c174 -52 280 -203 280 -397 0
-176 -76 -306 -217 -373 -171 -81 -366 -48 -487 83 -74 79 -99 145 -104 273
-3 87 -1 106 23 171 73 200 293 306 505 243z"/>
</g>
</svg>
